<svg width="184" height="116" viewBox="0 0 184 116" fill="none" xmlns="http://www.w3.org/2000/svg">
<path fill-rule="evenodd" clip-rule="evenodd" d="M116.139 25.5189C116.176 24.5353 116.21 23.5928 116.25 22.7021H67.25C67.2899 23.5929 67.3245 24.5354 67.3606 25.5192C67.7689 36.635 68.3703 53.0059 78.9242 59.2024C68.3701 65.399 67.7689 81.7682 67.3606 92.8854C67.3245 93.869 67.2899 94.8114 67.25 95.7021L116.25 95.7021C116.21 94.8114 116.176 93.8689 116.139 92.8851C115.731 81.7692 115.13 65.3984 104.576 59.2019C115.13 53.0053 115.731 36.6361 116.139 25.5189Z" fill="white"/>
<path fill-rule="evenodd" clip-rule="evenodd" d="M110.25 22.7021C109.793 35.1885 110.25 58.7021 93.7424 58.7021H89.7557C73.25 58.7021 73.7072 35.1856 73.25 22.7021H110.25Z" fill="#4599FF"/>
<path fill-rule="evenodd" clip-rule="evenodd" d="M73.25 95.7021C73.7072 82.8689 73.25 58.7021 89.7576 58.7022L93.7443 58.7022C110.25 58.7022 109.793 82.8719 110.25 95.7021L73.25 95.7021Z" fill="#4599FF"/>
<path d="M96.2222 80.1367C100.267 80.5386 105.25 88.7354 105.25 92.7021H77.25C77.25 85.6697 80.7778 86.701 84.75 78.6627C86.0599 76.012 91.1667 79.6343 96.2222 80.1367Z" fill="white"/>
<path d="M91.2559 56C83.4261 56 80 49.7249 80 47L103 47C103 51.1599 99.0857 56 91.2559 56Z" fill="white"/>
<rect x="59.25" y="95.7021" width="65" height="5" rx="2.5" fill="white"/>
<rect x="59.25" y="17.7021" width="65" height="5" rx="2.5" fill="white"/>
</svg>
