<svg width="184" height="116" viewBox="0 0 184 116" fill="none" xmlns="http://www.w3.org/2000/svg">
<path d="M44.7667 57.3466C44.9959 57.5752 45.2964 57.7014 45.6205 57.7014C45.9368 57.7014 46.2451 57.5752 46.4744 57.3466L49.1151 54.713C49.5658 54.2636 49.5658 53.4593 49.1151 53.0099L46.4744 50.3842C46.2451 50.1555 45.9368 50.0215 45.6205 50.0215C45.2964 50.0215 44.9959 50.1555 44.7667 50.3842L42.1339 53.0099C42.0213 53.1215 41.932 53.2542 41.8711 53.4003C41.8101 53.5464 41.7787 53.7032 41.7787 53.8614C41.7787 54.0197 41.8101 54.1764 41.8711 54.3226C41.932 54.4687 42.0213 54.6014 42.1339 54.713L44.7667 57.3466Z" fill="white"/>
<path d="M19.5967 59.1575C21.5381 58.5131 22.1159 59.232 23.2495 60.9233C24.4352 62.7122 26.0714 65.1643 30.4913 64.0668C32.1377 63.6583 33.5004 63.7765 34.528 64.4132C35.9838 65.3106 36.3677 66.9932 36.3757 67.0063C36.4583 67.3902 36.7467 67.6926 37.1252 67.8005C37.5074 67.9027 37.9106 67.7913 38.1774 67.4971L40.0795 65.435C40.3075 65.1893 40.4033 64.8445 40.3373 64.5115C40.3099 64.4133 39.776 61.9645 37.5676 60.5867C36.0376 59.6266 34.1235 59.4297 31.8895 59.9715C28.9133 60.7116 28.0277 59.3865 26.9058 57.7025C25.8396 56.1102 24.3899 53.9289 20.836 55.1083C19.2935 55.6224 18.0208 55.5931 17.0462 55.014C15.4288 54.0637 15.0165 51.8856 15.018 51.8704C14.9522 51.4727 14.6559 51.1572 14.2811 51.0434C13.8909 50.9282 13.4782 51.0417 13.2077 51.3417L11.3057 53.4038C11.2611 53.4487 11.2223 53.4973 11.1894 53.5495C11.0539 53.7642 10.9999 54.03 11.0392 54.2895C11.0636 54.4182 11.6045 57.4221 14.0495 58.8755C15.5797 59.7709 17.4416 59.8703 19.5967 59.1575ZM27.9477 46.6941C29.3747 49.3875 31.8109 49.9282 31.9165 49.954C32.2041 50.013 32.5095 49.9536 32.7469 49.7705L34.895 48.2192C35.2243 47.9804 35.3888 47.5653 35.3019 47.1625C35.2208 46.7634 34.907 46.4369 34.5022 46.3448C34.4389 46.3294 32.8977 45.9534 31.956 44.1638C31.5301 43.3459 31.5947 42.6899 31.6833 41.8546C31.786 40.9067 31.9149 39.7242 31.0839 38.4414C30.3123 37.2446 29.1693 36.7136 28.1632 36.236C27.2421 35.8038 26.4542 35.4309 25.9467 34.6264C25.3978 33.7718 25.4034 32.9006 25.4072 31.8906C25.4131 30.8901 25.4195 29.7603 24.8526 28.5865C24.3704 27.5875 23.4995 26.9599 22.6519 26.347C21.2772 25.3467 20.4371 24.6575 20.5842 23.0086C20.6211 22.6025 20.4162 22.2066 20.0598 21.9992C19.6998 21.7976 19.256 21.8187 18.923 22.0633L16.7748 23.6146C16.6624 23.6898 16.5718 23.7949 16.5022 23.9052C16.4143 24.0444 16.3651 24.1997 16.3485 24.3675C16.0803 27.2768 17.9216 28.6186 19.2745 29.589C19.9375 30.0699 20.5635 30.5194 20.8081 31.0454C21.1709 31.7833 21.1569 32.552 21.1593 33.4363C21.1579 34.6097 21.1488 35.9241 22.0261 37.3008C22.8658 38.6214 24.0669 39.1889 25.1306 39.6782C25.9898 40.0797 26.7333 40.4329 27.1749 41.1231C27.5883 41.755 27.5539 42.2599 27.4542 43.1773C27.35 44.1404 27.2153 45.3193 27.9477 46.6941ZM53.9284 27.59C53.341 28.5982 52.6811 29.7471 52.7585 31.3749C52.836 32.938 53.5948 34.0135 54.2687 34.9791C54.8157 35.7596 55.2872 36.4281 55.3299 37.2485C55.371 38.0842 54.9724 38.5873 54.551 39.1651C54.3835 39.392 54.2181 39.6284 54.068 39.8663C53.7349 40.3942 53.2879 41.2314 53.2441 42.4592C53.1357 45.5011 54.9936 47.1772 55.0699 47.2494C55.2886 47.4433 55.5885 47.5343 55.8814 47.5076L58.5226 47.2213C58.9315 47.1783 59.2843 46.8894 59.4093 46.4982C59.5344 46.1069 59.4162 45.6764 59.1037 45.3993C59.0958 45.3862 57.913 44.2877 57.987 42.2527C58.0025 41.6874 58.1489 41.2367 58.4857 40.7029C58.6138 40.4999 58.7536 40.3041 58.8933 40.1083C59.0572 39.8872 59.2116 39.6683 59.358 39.4362C59.7241 38.856 60.1316 38.0427 60.0639 36.8502C59.9881 35.4258 59.2612 34.4027 58.6192 33.4896C58.0366 32.6625 57.539 31.9453 57.4909 30.9918C57.4452 29.9831 57.881 29.2281 58.3842 28.3533C58.8801 27.4902 59.4492 26.511 59.5406 25.2078C59.6124 24.1028 59.1746 23.1235 58.7455 22.182C58.0652 20.686 57.6922 19.7069 58.4975 18.4305L58.6132 18.2601C58.8429 17.9346 58.8691 17.4813 58.6574 17.1217C58.448 16.7715 58.0479 16.5691 57.6353 16.6179L54.9941 16.9042C54.6938 16.9425 54.4216 17.1037 54.2526 17.3459C54.1918 17.4293 54.1311 17.5127 54.0762 17.5997C52.6303 19.8913 53.5276 21.8799 54.1877 23.3307C54.5257 24.0692 54.8419 24.7779 54.8037 25.3532C54.7583 26.1589 54.3715 26.8233 53.9284 27.59Z" fill="white"/>
<path d="M164.403 59.1575C162.462 58.5131 161.884 59.232 160.751 60.9233C159.565 62.7122 157.929 65.1643 153.509 64.0668C151.862 63.6583 150.5 63.7765 149.472 64.4132C148.016 65.3106 147.632 66.9932 147.624 67.0063C147.542 67.3902 147.253 67.6926 146.875 67.8005C146.493 67.9027 146.089 67.7913 145.823 67.4971L143.921 65.435C143.692 65.1893 143.597 64.8445 143.663 64.5115C143.69 64.4133 144.224 61.9645 146.432 60.5867C147.962 59.6266 149.876 59.4297 152.11 59.9715C155.087 60.7116 155.972 59.3865 157.094 57.7025C158.16 56.1102 159.61 53.9289 163.164 55.1083C164.707 55.6224 165.979 55.5931 166.954 55.014C168.571 54.0637 168.983 51.8856 168.982 51.8704C169.048 51.4727 169.344 51.1572 169.719 51.0434C170.109 50.9282 170.522 51.0417 170.792 51.3417L172.694 53.4038C172.739 53.4487 172.778 53.4973 172.811 53.5495C172.946 53.7642 173 54.03 172.961 54.2895C172.936 54.4182 172.395 57.4221 169.95 58.8755C168.42 59.7709 166.558 59.8703 164.403 59.1575ZM156.052 46.6941C154.625 49.3875 152.189 49.9282 152.084 49.954C151.796 50.013 151.49 49.9536 151.253 49.7705L149.105 48.2192C148.776 47.9804 148.611 47.5653 148.698 47.1625C148.779 46.7634 149.093 46.4369 149.498 46.3448C149.561 46.3294 151.102 45.9534 152.044 44.1638C152.47 43.3459 152.405 42.6899 152.317 41.8546C152.214 40.9067 152.085 39.7242 152.916 38.4414C153.688 37.2446 154.831 36.7136 155.837 36.236C156.758 35.8038 157.546 35.4309 158.053 34.6264C158.602 33.7718 158.597 32.9006 158.593 31.8906C158.587 30.8901 158.581 29.7603 159.147 28.5865C159.63 27.5875 160.5 26.9599 161.348 26.347C162.723 25.3467 163.563 24.6575 163.416 23.0086C163.379 22.6025 163.584 22.2066 163.94 21.9992C164.3 21.7976 164.744 21.8187 165.077 22.0633L167.225 23.6146C167.338 23.6898 167.428 23.7949 167.498 23.9052C167.586 24.0444 167.635 24.1997 167.651 24.3675C167.92 27.2768 166.078 28.6186 164.725 29.589C164.062 30.0699 163.437 30.5194 163.192 31.0454C162.829 31.7833 162.843 32.552 162.841 33.4363C162.842 34.6097 162.851 35.9241 161.974 37.3008C161.134 38.6214 159.933 39.1889 158.869 39.6782C158.01 40.0797 157.267 40.4329 156.825 41.1231C156.412 41.755 156.446 42.2599 156.546 43.1773C156.65 44.1404 156.785 45.3193 156.052 46.6941ZM130.072 27.59C130.659 28.5982 131.319 29.7471 131.242 31.3749C131.164 32.938 130.405 34.0135 129.731 34.9791C129.184 35.7596 128.713 36.4281 128.67 37.2485C128.629 38.0842 129.028 38.5873 129.449 39.1651C129.617 39.392 129.782 39.6284 129.932 39.8663C130.265 40.3942 130.712 41.2314 130.756 42.4592C130.864 45.5011 129.006 47.1772 128.93 47.2494C128.711 47.4433 128.412 47.5343 128.119 47.5076L125.477 47.2213C125.069 47.1783 124.716 46.8894 124.591 46.4982C124.466 46.1069 124.584 45.6764 124.896 45.3993C124.904 45.3862 126.087 44.2877 126.013 42.2527C125.997 41.6874 125.851 41.2367 125.514 40.7029C125.386 40.4999 125.246 40.3041 125.107 40.1083C124.943 39.8872 124.788 39.6683 124.642 39.4362C124.276 38.856 123.868 38.0427 123.936 36.8502C124.012 35.4258 124.739 34.4027 125.381 33.4896C125.963 32.6625 126.461 31.9453 126.509 30.9918C126.555 29.9831 126.119 29.2281 125.616 28.3533C125.12 27.4902 124.551 26.511 124.459 25.2078C124.388 24.1028 124.825 23.1235 125.255 22.182C125.935 20.686 126.308 19.7069 125.502 18.4305L125.387 18.2601C125.157 17.9346 125.131 17.4813 125.343 17.1217C125.552 16.7715 125.952 16.5691 126.365 16.6179L129.006 16.9042C129.306 16.9425 129.578 17.1037 129.747 17.3459C129.808 17.4293 129.869 17.5127 129.924 17.5997C131.37 19.8913 130.472 21.8799 129.812 23.3307C129.474 24.0692 129.158 24.7779 129.196 25.3532C129.242 26.1589 129.628 26.8233 130.072 27.59Z" fill="white"/>
<path d="M60.4952 94.788C60.7245 95.0167 61.0249 95.1428 61.3491 95.1428C61.6653 95.1428 61.9737 95.0167 62.2029 94.788L64.8436 92.1544C65.2943 91.705 65.2943 90.9007 64.8436 90.4513L62.2029 87.8256C61.9737 87.5969 61.6653 87.4629 61.3491 87.4629C61.0249 87.4629 60.7245 87.5969 60.4952 87.8256L57.8624 90.4513C57.7498 90.5629 57.6605 90.6956 57.5996 90.8417C57.5386 90.9879 57.5073 91.1446 57.5073 91.3029C57.5073 91.4611 57.5386 91.6178 57.5996 91.764C57.6605 91.9101 57.7498 92.0428 57.8624 92.1544L60.4952 94.788Z" fill="white"/>
<path d="M120.495 101.787C120.724 102.016 121.025 102.142 121.349 102.142C121.665 102.142 121.974 102.016 122.203 101.787L124.844 99.1534C125.294 98.704 125.294 97.8997 124.844 97.4503L122.203 94.8246C121.974 94.596 121.665 94.4619 121.349 94.4619C121.025 94.4619 120.724 94.596 120.495 94.8246L117.862 97.4503C117.75 97.5619 117.661 97.6946 117.6 97.8407C117.539 97.9869 117.507 98.1436 117.507 98.3019C117.507 98.4602 117.539 98.6169 117.6 98.763C117.661 98.9092 117.75 99.0418 117.862 99.1534L120.495 101.787Z" fill="white"/>
<path d="M74.4952 23.7978C74.7245 24.0264 75.0249 24.1526 75.3491 24.1526C75.6653 24.1526 75.9737 24.0264 76.2029 23.7978L78.8436 21.1642C79.2943 20.7147 79.2943 19.9105 78.8436 19.461L76.2029 16.8354C75.9737 16.6067 75.6653 16.4727 75.3491 16.4727C75.0249 16.4727 74.7245 16.6067 74.4952 16.8354L71.8624 19.461C71.7498 19.5726 71.6605 19.7053 71.5996 19.8515C71.5386 19.9976 71.5073 20.1543 71.5073 20.3126C71.5073 20.4709 71.5386 20.6276 71.5996 20.7738C71.6605 20.9199 71.7498 21.0526 71.8624 21.1642L74.4952 23.7978Z" fill="white"/>
<path d="M41.4952 83.789C41.7245 84.0176 42.0249 84.1438 42.3491 84.1438C42.6653 84.1438 42.9737 84.0176 43.2029 83.789L45.8436 81.1554C46.2943 80.706 46.2943 79.9017 45.8436 79.4523L43.2029 76.8266C42.9737 76.5979 42.6653 76.4639 42.3491 76.4639C42.0249 76.4639 41.7245 76.5979 41.4952 76.8266L38.8624 79.4523C38.7498 79.5639 38.6605 79.6965 38.5996 79.8427C38.5386 79.9888 38.5073 80.1455 38.5073 80.3038C38.5073 80.4621 38.5386 80.6188 38.5996 80.765C38.6605 80.9111 38.7498 81.0438 38.8624 81.1554L41.4952 83.789Z" fill="white"/>
<path d="M139.892 85.0556C140.121 85.2842 140.421 85.4104 140.746 85.4104C141.062 85.4104 141.37 85.2842 141.599 85.0556L144.24 82.422C144.691 81.9726 144.691 81.1683 144.24 80.7189L141.599 78.0932C141.37 77.8645 141.062 77.7305 140.746 77.7305C140.421 77.7305 140.121 77.8645 139.892 78.0932L137.259 80.7189C137.146 80.8305 137.057 80.9631 136.996 81.1093C136.935 81.2554 136.904 81.4122 136.904 81.5704C136.904 81.7287 136.935 81.8854 136.996 82.0316C137.057 82.1777 137.146 82.3104 137.259 82.422L139.892 85.0556Z" fill="white"/>
<path d="M126.419 64.6612V64.9181C126.419 67.9446 126.419 69.4614 125.69 70.7002C124.961 71.9389 123.635 72.6744 120.988 74.149L118.197 75.6974C120.118 69.194 120.762 62.2049 120.998 56.2293L121.034 55.4516L121.041 55.2686C123.332 56.0639 124.62 56.6586 125.423 57.7707C126.419 59.1537 126.419 60.9907 126.419 64.6612ZM56.0254 64.6612V64.9181C56.0254 67.9446 56.0254 69.4614 56.754 70.7002C57.4825 71.9389 58.8094 72.6744 61.4562 74.149L64.2508 75.6974C62.3256 69.194 61.6815 62.2049 61.4457 56.2293L61.4105 55.4516L61.4069 55.2686C59.1121 56.0639 57.8239 56.6586 57.0215 57.7707C56.0254 59.1537 56.0254 60.9943 56.0254 64.6612Z" fill="white"/>
<path fill-rule="evenodd" clip-rule="evenodd" d="M91.2222 42.9764C97.5013 42.9764 102.672 43.5289 106.628 44.1976C110.637 44.8733 112.639 45.2111 114.315 47.2733C115.99 49.3356 115.899 51.5632 115.723 56.0185C115.117 71.3234 111.816 90.4361 93.862 92.1253V104.562H98.8951C99.7084 104.563 100.497 104.845 101.125 105.361C101.754 105.876 102.185 106.594 102.344 107.392L103.013 110.721H112.34C113.04 110.721 113.712 110.999 114.207 111.494C114.702 111.989 114.98 112.66 114.98 113.36C114.98 114.06 114.702 114.731 114.207 115.226C113.712 115.721 113.04 115.999 112.34 115.999H70.1043C69.4042 115.999 68.7327 115.721 68.2377 115.226C67.7426 114.731 67.4645 114.06 67.4645 113.36C67.4645 112.66 67.7426 111.989 68.2377 111.494C68.7327 110.999 69.4042 110.721 70.1043 110.721H79.4314L80.1001 107.392C80.2595 106.594 80.6902 105.876 81.3191 105.361C81.9479 104.845 82.736 104.563 83.5494 104.562H88.5825V92.1253C70.6322 90.4361 67.3308 71.3199 66.7254 56.0185C66.5459 51.5632 66.4579 49.3321 68.1332 47.2733C69.8051 45.2111 71.8078 44.8733 75.8167 44.1976C80.909 43.3631 86.062 42.9546 91.2222 42.9764ZM94.5729 57.7535L94.228 57.1341C92.8905 54.7305 92.2218 53.534 91.2222 53.534C90.2226 53.534 89.5539 54.7305 88.2164 57.1341L87.8715 57.7535C87.4914 58.4362 87.3013 58.774 87.0057 58.9992C86.7065 59.2245 86.3369 59.3089 85.5978 59.4743L84.9291 59.6292C82.3316 60.2169 81.0328 60.509 80.7231 61.5014C80.4133 62.4973 81.3003 63.532 83.0707 65.6012L83.5282 66.1361C84.0315 66.7239 84.285 67.0159 84.3976 67.3819C84.5102 67.7479 84.4715 68.1386 84.3976 68.9233L84.3272 69.6377C84.0597 72.4003 83.926 73.7833 84.732 74.3957C85.5415 75.008 86.7593 74.4485 89.1914 73.3294L89.8179 73.0408C90.5112 72.7241 90.8562 72.5657 91.2222 72.5657C91.5883 72.5657 91.9332 72.7241 92.6266 73.0408L93.2531 73.3294C95.6851 74.452 96.9029 75.008 97.7125 74.3957C98.522 73.7833 98.3847 72.4003 98.1172 69.6377L98.0468 68.9233C97.9729 68.1386 97.9342 67.7479 98.0468 67.3819C98.1595 67.0195 98.4129 66.7239 98.9162 66.1361L99.3737 65.6012C101.144 63.532 102.031 62.4973 101.721 61.5014C101.412 60.509 100.113 60.2169 97.5154 59.6292L96.8466 59.4743C96.1075 59.3089 95.7379 59.228 95.4388 58.9992C95.1431 58.774 94.9531 58.4362 94.5729 57.7535Z" fill="white"/>
<path d="M112.378 27.7841C112.607 28.0127 112.908 28.1389 113.232 28.1389C113.548 28.1389 113.856 28.0127 114.086 27.7841L116.726 25.1505C117.177 24.7011 117.177 23.8968 116.726 23.4474L114.086 20.8217C113.856 20.593 113.548 20.459 113.232 20.459C112.908 20.459 112.607 20.593 112.378 20.8217L109.745 23.4474C109.633 23.559 109.543 23.6917 109.482 23.8378C109.421 23.9839 109.39 24.1407 109.39 24.2989C109.39 24.4572 109.421 24.6139 109.482 24.7601C109.543 24.9062 109.633 25.0389 109.745 25.1505L112.378 27.7841Z" fill="white"/>
<path d="M88.378 35.7831C88.6073 36.0118 88.9077 36.1379 89.2319 36.1379C89.5481 36.1379 89.8565 36.0118 90.0858 35.7831L92.7265 33.1495C93.1771 32.7001 93.1771 31.8958 92.7265 31.4464L90.0858 28.8207C89.8565 28.5921 89.5481 28.458 89.2319 28.458C88.9077 28.458 88.6073 28.5921 88.378 28.8207L85.7452 31.4464C85.6326 31.558 85.5433 31.6907 85.4824 31.8368C85.4215 31.983 85.3901 32.1397 85.3901 32.298C85.3901 32.4562 85.4215 32.613 85.4824 32.7591C85.5433 32.9053 85.6326 33.0379 85.7452 33.1495L88.378 35.7831Z" fill="white"/>
</svg>
