<svg width="170" height="39" viewBox="0 0 170 39" fill="none" xmlns="http://www.w3.org/2000/svg">
<path d="M1 31L25 31" stroke="white"/>
<path d="M10.137 7.08H8.047L8.161 6.89L14.45 6.89L14.336 7.08L12.227 7.08L4.874 19.81H6.964L6.85 20H0.58L0.694 19.81H2.784L10.137 7.08ZM12.775 20.19C11.8124 20.19 11.1094 19.981 10.666 19.563C10.21 19.1577 9.98203 18.6193 9.98203 17.948C9.98203 17.378 10.1024 16.7827 10.343 16.162C10.5837 15.5413 10.913 14.9333 11.331 14.338C11.749 13.7427 12.243 13.179 12.813 12.647C13.3704 12.115 13.9784 11.6463 14.637 11.241C15.2957 10.8357 15.9797 10.5127 16.689 10.272C17.3984 10.044 18.1014 9.93 18.798 9.93C19.33 9.93 19.672 10.0503 19.824 10.291C19.976 10.5317 20.052 10.88 20.052 11.336C20.052 11.6273 20.0267 11.9123 19.976 12.191C19.9127 12.4697 19.8177 12.7737 19.691 13.103L21.401 10.12H23.396L17.791 19.81C17.2844 20.684 16.765 21.4503 16.233 22.109C15.6884 22.7803 15.1057 23.3377 14.485 23.781C13.8517 24.2243 13.1614 24.56 12.414 24.788C11.6667 25.016 10.837 25.13 9.92503 25.13C9.53236 25.13 9.1967 25.073 8.91803 24.959C8.63936 24.8577 8.41136 24.7247 8.23403 24.56C8.0567 24.408 7.93003 24.2307 7.85403 24.028C7.76536 23.838 7.72103 23.648 7.72103 23.458C7.72103 23.0527 7.87303 22.755 8.17703 22.565C8.46836 22.3877 8.82303 22.299 9.24103 22.299C9.41836 22.299 9.60203 22.3117 9.79203 22.337C9.96936 22.375 10.1467 22.4447 10.324 22.546L9.08903 24.674C9.20303 24.788 9.51336 24.845 10.02 24.845C10.6787 24.845 11.2804 24.7057 11.825 24.427C12.357 24.161 12.87 23.7747 13.364 23.268C13.8454 22.774 14.3204 22.166 14.789 21.444C15.245 20.7347 15.7327 19.9303 16.252 19.031L17.05 17.644C16.4167 18.3787 15.7517 18.9867 15.055 19.468C14.3457 19.9493 13.5857 20.19 12.775 20.19ZM12.87 19.905C13.4147 19.905 13.9657 19.753 14.523 19.449C15.0677 19.1577 15.5997 18.765 16.119 18.271C16.6257 17.7897 17.1007 17.2387 17.544 16.618C17.9874 16.01 18.3737 15.383 18.703 14.737C19.0324 14.1037 19.292 13.4893 19.482 12.894C19.672 12.2987 19.767 11.7793 19.767 11.336C19.767 10.9687 19.7164 10.6773 19.615 10.462C19.5137 10.2593 19.2224 10.158 18.741 10.158C18.1837 10.158 17.6264 10.3037 17.069 10.595C16.499 10.899 15.9607 11.2917 15.454 11.773C14.9474 12.267 14.4787 12.8243 14.048 13.445C13.6047 14.0657 13.2247 14.6927 12.908 15.326C12.5787 15.972 12.3254 16.5927 12.148 17.188C11.958 17.796 11.863 18.3217 11.863 18.765C11.863 19.145 11.9264 19.43 12.053 19.62C12.167 19.81 12.4394 19.905 12.87 19.905Z" fill="#EDEDED"/>
<path d="M80.118 7.08H78.028L78.142 6.89L87.813 6.89L85.495 10.899V7.08L82.208 7.08L78.712 13.141L82.645 13.141L82.531 13.331L78.598 13.331L74.855 19.81H78.864L78.75 20H70.561L70.675 19.81H72.765L80.118 7.08ZM89.2113 5.94L89.3253 5.75H93.2963L89.6863 12.001C90.2309 11.3803 90.8136 10.88 91.4343 10.5C92.0423 10.12 92.7136 9.93 93.4483 9.93C94.4363 9.93 95.1456 10.1517 95.5763 10.595C96.0069 11.051 96.2223 11.678 96.2223 12.476C96.2223 13.2993 96.0069 14.1607 95.5763 15.06C95.1329 15.972 94.5376 16.808 93.7903 17.568C93.0303 18.328 92.1499 18.955 91.1493 19.449C90.1486 19.943 89.0846 20.19 87.9573 20.19C87.4506 20.19 87.0959 20.057 86.8933 19.791C86.6779 19.525 86.5703 19.183 86.5703 18.765C86.5703 18.385 86.6273 17.9987 86.7413 17.606C86.8553 17.2133 86.9946 16.808 87.1593 16.39L85.0693 20L83.0933 20L91.2063 5.94H89.2113ZM87.9573 19.905C88.5906 19.905 89.1859 19.7593 89.7433 19.468C90.3006 19.1767 90.8199 18.7903 91.3013 18.309C91.7699 17.8277 92.1943 17.283 92.5743 16.675C92.9543 16.0797 93.2773 15.4717 93.5433 14.851C93.8093 14.2303 94.0119 13.6287 94.1513 13.046C94.2906 12.476 94.3603 11.9757 94.3603 11.545C94.3603 11.1143 94.3033 10.7723 94.1893 10.519C94.0626 10.2783 93.7839 10.158 93.3533 10.158C92.8973 10.158 92.4539 10.253 92.0233 10.443C91.5926 10.6457 91.1809 10.9117 90.7883 11.241C90.3829 11.583 90.0029 11.9757 89.6483 12.419C89.2809 12.8623 88.9453 13.331 88.6413 13.825L88.2233 14.528C87.7926 15.326 87.4569 16.0987 87.2163 16.846C86.9756 17.606 86.8553 18.2457 86.8553 18.765C86.8553 19.1197 86.9376 19.3983 87.1023 19.601C87.2669 19.8037 87.5519 19.905 87.9573 19.905Z" fill="#EDEDED"/>
<path d="M153.987 7.08L151.517 7.08L146.767 10.899L149.085 6.89L160.732 6.89L158.414 10.899V7.08H156.077L148.724 19.81H150.814L150.7 20H144.43L144.544 19.81H146.634L153.987 7.08ZM159.063 20.19C158.1 20.19 157.397 19.981 156.954 19.563C156.498 19.1577 156.27 18.6193 156.27 17.948C156.27 17.378 156.39 16.7827 156.631 16.162C156.872 15.5413 157.201 14.9333 157.619 14.338C158.037 13.7427 158.531 13.179 159.101 12.647C159.658 12.115 160.266 11.6463 160.925 11.241C161.584 10.8357 162.268 10.5127 162.977 10.272C163.686 10.044 164.389 9.93 165.086 9.93C165.618 9.93 165.96 10.0503 166.112 10.291C166.264 10.5317 166.34 10.88 166.34 11.336C166.34 11.6273 166.315 11.9123 166.264 12.191C166.201 12.4697 166.106 12.7737 165.979 13.103L167.689 10.12H169.684L164.079 19.81C163.572 20.684 163.053 21.4503 162.521 22.109C161.976 22.7803 161.394 23.3377 160.773 23.781C160.14 24.2243 159.449 24.56 158.702 24.788C157.955 25.016 157.125 25.13 156.213 25.13C155.82 25.13 155.485 25.073 155.206 24.959C154.927 24.8577 154.699 24.7247 154.522 24.56C154.345 24.408 154.218 24.2307 154.142 24.028C154.053 23.838 154.009 23.648 154.009 23.458C154.009 23.0527 154.161 22.755 154.465 22.565C154.756 22.3877 155.111 22.299 155.529 22.299C155.706 22.299 155.89 22.3117 156.08 22.337C156.257 22.375 156.435 22.4447 156.612 22.546L155.377 24.674C155.491 24.788 155.801 24.845 156.308 24.845C156.967 24.845 157.568 24.7057 158.113 24.427C158.645 24.161 159.158 23.7747 159.652 23.268C160.133 22.774 160.608 22.166 161.077 21.444C161.533 20.7347 162.021 19.9303 162.54 19.031L163.338 17.644C162.705 18.3787 162.04 18.9867 161.343 19.468C160.634 19.9493 159.874 20.19 159.063 20.19ZM159.158 19.905C159.703 19.905 160.254 19.753 160.811 19.449C161.356 19.1577 161.888 18.765 162.407 18.271C162.914 17.7897 163.389 17.2387 163.832 16.618C164.275 16.01 164.662 15.383 164.991 14.737C165.32 14.1037 165.58 13.4893 165.77 12.894C165.96 12.2987 166.055 11.7793 166.055 11.336C166.055 10.9687 166.004 10.6773 165.903 10.462C165.802 10.2593 165.51 10.158 165.029 10.158C164.472 10.158 163.914 10.3037 163.357 10.595C162.787 10.899 162.249 11.2917 161.742 11.773C161.235 12.267 160.767 12.8243 160.336 13.445C159.893 14.0657 159.513 14.6927 159.196 15.326C158.867 15.972 158.613 16.5927 158.436 17.188C158.246 17.796 158.151 18.3217 158.151 18.765C158.151 19.145 158.214 19.43 158.341 19.62C158.455 19.81 158.727 19.905 159.158 19.905Z" fill="#EDEDED"/>
<g clip-path="url(#clip0_50_558)">
<path fill-rule="evenodd" clip-rule="evenodd" d="M17.3315 34.3801C17.0475 34.0211 16.7025 33.2871 16.0885 32.3961C15.7405 31.8921 14.8775 30.9431 14.6205 30.4611C14.3975 30.0351 14.4215 29.8441 14.4745 29.4911C14.5685 28.8631 15.2125 28.3741 15.8995 28.4401C16.4185 28.4891 16.8585 28.8321 17.2545 29.1561C17.4935 29.3511 17.7875 29.7301 17.9645 29.9441C18.1275 30.1401 18.1675 30.2211 18.3415 30.4531C18.5715 30.7601 18.6435 30.9121 18.5555 30.5741C18.4845 30.0781 18.3685 29.2311 18.2005 28.4821C18.0725 27.9141 18.0415 27.8251 17.9195 27.3891C17.7905 26.9251 17.7245 26.6001 17.6035 26.1081C17.5195 25.7601 17.3685 25.0491 17.3275 24.6491C17.2705 24.1021 17.2405 23.2101 17.5915 22.8001C17.8665 22.4791 18.4975 22.3821 18.8885 22.5801C19.4005 22.8391 19.6915 23.5831 19.8245 23.8801C20.0635 24.4141 20.2115 25.0311 20.3405 25.8411C20.5045 26.8721 20.8065 28.3031 20.8165 28.6041C20.8405 28.2351 20.7485 27.4581 20.8125 27.1041C20.8705 26.7831 21.1405 26.4101 21.4785 26.3091C21.7645 26.2241 22.0995 26.1931 22.3945 26.2541C22.7075 26.3181 23.0375 26.5421 23.1605 26.7531C23.5225 27.3771 23.5295 28.6521 23.5445 28.5841C23.6305 28.2081 23.6155 27.3551 23.8285 27.0001C23.9685 26.7661 24.3255 26.5551 24.5155 26.5211C24.8095 26.4691 25.1705 26.4531 25.4795 26.5131C25.7285 26.5621 26.0655 26.8581 26.1565 27.0001C26.3745 27.3441 26.4985 28.3171 26.5355 28.6581C26.5505 28.7991 26.6095 28.2661 26.8285 27.9221C27.2345 27.2831 28.6715 27.1591 28.7265 28.5611C28.7515 29.2151 28.7465 29.1851 28.7465 29.6251C28.7465 30.1421 28.7345 30.4531 28.7065 30.8271C28.6755 31.2271 28.5895 32.1311 28.4645 32.5691C28.3785 32.8701 28.0935 33.5471 27.8125 33.9531C27.8125 33.9531 26.7385 35.2031 26.6215 35.7661C26.5035 36.3281 26.5425 36.3321 26.5195 36.7311C26.4965 37.1291 26.6405 37.6531 26.6405 37.6531C26.6405 37.6531 25.8385 37.7571 25.4065 37.6881C25.0155 37.6251 24.5315 36.8471 24.4065 36.6091C24.2345 36.2811 23.8675 36.3441 23.7245 36.5861C23.4995 36.9691 23.0155 37.6561 22.6735 37.6991C22.0055 37.7831 20.6195 37.7301 19.5345 37.7191C19.5345 37.7191 19.7195 36.7081 19.3075 36.3611C19.0025 36.1021 18.4775 35.5771 18.1635 35.3011L17.3315 34.3801Z" fill="white"/>
<path fill-rule="evenodd" clip-rule="evenodd" d="M17.3315 34.3801C17.0475 34.0211 16.7025 33.2871 16.0885 32.3961C15.7405 31.8921 14.8775 30.9431 14.6205 30.4611C14.3975 30.0351 14.4215 29.8441 14.4745 29.4911C14.5685 28.8631 15.2125 28.3741 15.8995 28.4401C16.4185 28.4891 16.8585 28.8321 17.2545 29.1561C17.4935 29.3511 17.7875 29.7301 17.9645 29.9441C18.1275 30.1401 18.1675 30.2211 18.3415 30.4531C18.5715 30.7601 18.6435 30.9121 18.5555 30.5741C18.4845 30.0781 18.3685 29.2311 18.2005 28.4821C18.0725 27.9141 18.0415 27.8251 17.9195 27.3891C17.7905 26.9251 17.7245 26.6001 17.6035 26.1081C17.5195 25.7601 17.3685 25.0491 17.3275 24.6491C17.2705 24.1021 17.2405 23.2101 17.5915 22.8001C17.8665 22.4791 18.4975 22.3821 18.8885 22.5801C19.4005 22.8391 19.6915 23.5831 19.8245 23.8801C20.0635 24.4141 20.2115 25.0311 20.3405 25.8411C20.5045 26.8721 20.8065 28.3031 20.8165 28.6041C20.8405 28.2351 20.7485 27.4581 20.8125 27.1041C20.8705 26.7831 21.1405 26.4101 21.4785 26.3091C21.7645 26.2241 22.0995 26.1931 22.3945 26.2541C22.7075 26.3181 23.0375 26.5421 23.1605 26.7531C23.5225 27.3771 23.5295 28.6521 23.5445 28.5841C23.6305 28.2081 23.6155 27.3551 23.8285 27.0001C23.9685 26.7661 24.3255 26.5551 24.5155 26.5211C24.8095 26.4691 25.1705 26.4531 25.4795 26.5131C25.7285 26.5621 26.0655 26.8581 26.1565 27.0001C26.3745 27.3441 26.4985 28.3171 26.5355 28.6581C26.5505 28.7991 26.6095 28.2661 26.8285 27.9221C27.2345 27.2831 28.6715 27.1591 28.7265 28.5611C28.7515 29.2151 28.7465 29.1851 28.7465 29.6251C28.7465 30.1421 28.7345 30.4531 28.7065 30.8271C28.6755 31.2271 28.5895 32.1311 28.4645 32.5691C28.3785 32.8701 28.0935 33.5471 27.8125 33.9531C27.8125 33.9531 26.7385 35.2031 26.6215 35.7661C26.5035 36.3281 26.5425 36.3321 26.5195 36.7311C26.4965 37.1291 26.6405 37.6531 26.6405 37.6531C26.6405 37.6531 25.8385 37.7571 25.4065 37.6881C25.0155 37.6251 24.5315 36.8471 24.4065 36.6091C24.2345 36.2811 23.8675 36.3441 23.7245 36.5861C23.4995 36.9691 23.0155 37.6561 22.6735 37.6991C22.0055 37.7831 20.6195 37.7301 19.5345 37.7191C19.5345 37.7191 19.7195 36.7081 19.3075 36.3611C19.0025 36.1021 18.4775 35.5771 18.1635 35.3011L17.3315 34.3801Z" stroke="black" stroke-width="0.75" stroke-linecap="round" stroke-linejoin="round"/>
<path d="M25.5664 34.7344V31.2754" stroke="black" stroke-width="0.75" stroke-linecap="round"/>
<path d="M23.5513 34.7464L23.5353 31.2734" stroke="black" stroke-width="0.75" stroke-linecap="round"/>
<path d="M21.5547 31.3047L21.5757 34.7307" stroke="black" stroke-width="0.75" stroke-linecap="round"/>
</g>
<defs>
<clipPath id="clip0_50_558">
<rect width="16" height="17" fill="white" transform="translate(14 22)"/>
</clipPath>
</defs>
</svg>
