<svg width="123" height="42" viewBox="0 0 123 42" fill="none" xmlns="http://www.w3.org/2000/svg">
<path d="M42.5172 5.6504L42.1951 5.26801L42.5172 5.6504ZM33.5494 5.6504L33.2273 6.03279L33.5494 5.6504ZM42.5172 35.9496L42.8394 35.5672L42.5172 35.9496ZM33.2273 35.5672C29.8694 38.396 25.5344 40.1 20.8 40.1V41.1C25.7788 41.1 30.3401 39.307 33.8715 36.332L33.2273 35.5672ZM55.2666 40.1C50.5323 40.1 46.1972 38.396 42.8394 35.5672L42.1951 36.332C45.7265 39.307 50.2878 41.1 55.2666 41.1V40.1ZM74.5666 20.8C74.5666 31.4591 65.9257 40.1 55.2666 40.1V41.1C66.478 41.1 75.5666 32.0114 75.5666 20.8H74.5666ZM55.2666 1.5C65.9257 1.5 74.5666 10.1409 74.5666 20.8H75.5666C75.5666 9.58862 66.478 0.5 55.2666 0.5V1.5ZM42.8394 6.03279C46.1972 3.20403 50.5323 1.5 55.2666 1.5V0.5C50.2878 0.5 45.7265 2.29303 42.1951 5.26801L42.8394 6.03279ZM20.8 1.5C25.5344 1.5 29.8694 3.20403 33.2273 6.03279L33.8715 5.26801C30.3401 2.29303 25.7788 0.5 20.8 0.5V1.5ZM1.5 20.8C1.5 10.1409 10.1409 1.5 20.8 1.5V0.5C9.58862 0.5 0.5 9.58862 0.5 20.8H1.5ZM20.8 40.1C10.1409 40.1 1.5 31.4591 1.5 20.8H0.5C0.5 32.0114 9.58862 41.1 20.8 41.1V40.1ZM121.5 20.8C121.5 31.4591 112.859 40.1 102.2 40.1V41.1C113.411 41.1 122.5 32.0114 122.5 20.8H121.5ZM102.2 1.5C112.859 1.5 121.5 10.1409 121.5 20.8H122.5C122.5 9.58862 113.411 0.5 102.2 0.5V1.5ZM82.9 20.8C82.9 10.1409 91.5409 1.5 102.2 1.5V0.5C90.9886 0.5 81.9 9.58862 81.9 20.8H82.9ZM102.2 40.1C91.5409 40.1 82.9 31.4591 82.9 20.8H81.9C81.9 32.0114 90.9886 41.1 102.2 41.1V40.1ZM42.1951 5.26801C41.1154 6.17757 39.5892 6.65127 38.0333 6.65127C36.4774 6.65127 34.9512 6.17757 33.8715 5.26801L33.2273 6.03279C34.523 7.12439 36.293 7.65127 38.0333 7.65127C39.7736 7.65127 41.5436 7.12439 42.8394 6.03279L42.1951 5.26801ZM33.8715 36.332C34.9512 35.4224 36.4774 34.9487 38.0333 34.9487C39.5892 34.9487 41.1154 35.4224 42.1951 36.332L42.8394 35.5672C41.5436 34.4756 39.7736 33.9487 38.0333 33.9487C36.293 33.9487 34.523 34.4756 33.2273 35.5672L33.8715 36.332Z" fill="#D3D3D3"/>
</svg>
