<?xml version="1.0" encoding="UTF-8" standalone="no"?>
<svg
   width="458"
   height="23"
   viewBox="0 0 458 23"
   fill="none"
   version="1.1"
   id="svg4"
   sodipodi:docname="Union2.svg"
   inkscape:version="1.3 (0e150ed6c4, 2023-07-21)"
   xmlns:inkscape="http://www.inkscape.org/namespaces/inkscape"
   xmlns:sodipodi="http://sodipodi.sourceforge.net/DTD/sodipodi-0.dtd"
   xmlns="http://www.w3.org/2000/svg"
   xmlns:svg="http://www.w3.org/2000/svg">
  <sodipodi:namedview
     id="namedview4"
     pagecolor="#ffffff"
     bordercolor="#000000"
     borderopacity="0.25"
     inkscape:showpageshadow="2"
     inkscape:pageopacity="0.0"
     inkscape:pagecheckerboard="0"
     inkscape:deskcolor="#d1d1d1"
     inkscape:zoom="2.1660935"
     inkscape:cx="282.76711"
     inkscape:cy="77.78981"
     inkscape:window-width="1920"
     inkscape:window-height="1009"
     inkscape:window-x="-8"
     inkscape:window-y="-8"
     inkscape:window-maximized="1"
     inkscape:current-layer="svg4" />
  <path
     fill-rule="evenodd"
     clip-rule="evenodd"
     d="M 113.078,12.1986 94.6251,0 77.1,12.1842 58.6902,0.0143764 40.9047,12.1701 23.1408,0.0291934 0,15.0589 4.88501,22.5471 23.0141,10.7724 40.9047,23 58.7736,10.7873 77.2269,22.9859 94.752,10.8016 l 18.41,12.1699 17.806,-12.1702 18.109,12.17 L 167.382,10.7724 185.273,23 203.142,10.7873 221.595,22.9859 239.12,10.8016 257.53,22.9715 275.337,10.8013 293.445,22.9713 311.45,10.8706 329.197,23 347.066,10.7873 365.52,22.9859 383.045,10.8016 401.454,22.9715 419.261,10.8013 437.369,22.9713 458,9.1061 452.998,1.69554 437.369,12.1988 419.219,3.28906e-4 401.371,12.1986 382.918,0 365.393,12.1842 346.983,0.0143764 329.197,12.1701 311.433,0.0291934 293.077,11.9515 275.295,3.28906e-4 257.447,12.1986 238.993,0 221.468,12.1842 203.059,0.0143764 185.273,12.1701 167.509,0.0291934 148.927,12.0981 130.926,3.28906e-4 Z"
     fill="#80b9ff"
     fill-opacity="0.22"
     id="path1"
     style="fill:#4599ff;fill-opacity:1" />
  <path
     fill-rule="evenodd"
     clip-rule="evenodd"
     d="M 113.078,12.1986 94.6251,0 77.1,12.1842 58.6902,0.0143764 40.9047,12.1701 23.1408,0.0291934 0,15.0589 4.88501,22.5471 23.0141,10.7724 40.9047,23 58.7736,10.7873 77.2269,22.9859 94.752,10.8016 l 18.41,12.1699 17.806,-12.1702 18.109,12.17 L 167.382,10.7724 185.273,23 203.142,10.7873 221.595,22.9859 239.12,10.8016 257.53,22.9715 275.337,10.8013 293.445,22.9713 311.45,10.8706 329.197,23 347.066,10.7873 365.52,22.9859 383.045,10.8016 401.454,22.9715 419.261,10.8013 437.369,22.9713 458,9.1061 452.998,1.69554 437.369,12.1988 419.219,3.28906e-4 401.371,12.1986 382.918,0 365.393,12.1842 346.983,0.0143764 329.197,12.1701 311.433,0.0291934 293.077,11.9515 275.295,3.28906e-4 257.447,12.1986 238.993,0 221.468,12.1842 203.059,0.0143764 185.273,12.1701 167.509,0.0291934 148.927,12.0981 130.926,3.28906e-4 Z"
     fill="url(#paint0_linear_1481_2830)"
     id="path2"
     style="display:none"
     sodipodi:insensitive="true" />
  <defs
     id="defs4">
    <linearGradient
       id="paint0_linear_1481_2830"
       x1="-0.00933509"
       y1="11.7396"
       x2="228.999"
       y2="11.7396"
       gradientUnits="userSpaceOnUse">
      <stop
         stop-color="#4599FF"
         id="stop2" />
      <stop
         offset="0.9999"
         stop-color="#4599FF"
         id="stop3" />
      <stop
         offset="1"
         stop-color="#4599FF"
         stop-opacity="0"
         id="stop4" />
    </linearGradient>
  </defs>
  <path
     style="fill:#4599ff;fill-opacity:1;stroke-width:0.23083"
     d="m 37.777612,20.709809 -3.142649,-2.12797 -0.0052,-5.265012 c -0.0035,-3.4950561 0.07334,-5.2164651 0.228453,-5.1206009 0.128515,0.079427 1.452904,0.9810646 2.943087,2.0036409 1.490182,1.022575 2.82371,1.903727 2.963395,1.958115 0.139684,0.05439 4.221254,-2.6140675 9.070155,-5.9299015 l 8.816184,-6.02878897 1.893764,1.21479877 c 1.041569,0.6681393 5.152135,3.37595 9.134588,6.017357 3.982452,2.6414077 7.319467,4.8025587 7.415585,4.8025587 0.09612,0 4.005263,-2.6687886 8.686986,-5.9306409 4.681723,-3.2618521 8.668036,-5.92981691 8.858471,-5.92881037 0.190435,0.001007 4.386191,2.67521277 9.323899,5.94268067 5.26954,3.4870522 9.11487,5.8881956 9.30987,5.8133696 0.18272,-0.07011 4.2292,-2.7911408 8.99219,-6.0467233 l 8.65999,-5.91924137 8.91591,5.97697507 c 4.90375,3.2873364 9.02247,5.9663676 9.15271,5.9534036 0.13024,-0.01296 3.87237,-2.3908055 8.31586,-5.2840909 4.44348,-2.8932855 8.56581,-5.5622432 9.16073,-5.93101711 l 1.08167,-0.670498 8.04672,5.50269021 c 4.42569,3.0264797 8.41444,5.7299588 8.86389,6.0077308 l 0.81717,0.505041 4.88698,-3.2847664 c 2.68784,-1.8066215 6.68785,-4.5131203 8.88893,-6.0144419 l 4.00194,-2.72967578 6.44143,4.20733428 c 3.54279,2.3140338 7.67143,5.0309943 9.17477,6.0376898 l 2.73334,1.830356 1.2928,-0.858369 c 0.71104,-0.472103 4.57084,-3.1423225 8.57734,-5.9338202 4.0065,-2.7914979 7.41124,-5.12425605 7.56608,-5.18390703 0.15484,-0.059651 4.40335,2.61771973 9.44113,5.94971263 6.45827,4.2715026 9.24962,5.9969146 9.46481,5.8504706 0.16786,-0.114234 1.84015,-1.245478 3.71619,-2.513875 1.87605,-1.2683975 5.73091,-3.8912067 8.56634,-5.828465 2.83545,-1.9372582 5.20785,-3.5222877 5.27204,-3.5222877 0.0642,0 4.06303,2.6566478 8.88637,5.9036619 4.82334,3.2470138 8.89158,5.8568888 9.04056,5.7997218 0.14896,-0.05717 4.29882,-2.7178599 9.22193,-5.9126525 5.42963,-3.5235183 9.06161,-5.7420617 9.2321,-5.63929189 0.15456,0.0931819 4.07242,2.76511459 8.70634,5.93762819 4.63392,3.1725136 8.58352,5.7713562 8.77688,5.7752062 0.19335,0.0038 4.27431,-2.6721815 9.06877,-5.9467352 l 8.71724,-5.95373382 2.24189,1.44605402 c 1.23305,0.7953296 5.3419,3.5115554 9.1308,6.036057 4.09896,2.731112 7.02527,4.537672 7.22563,4.460786 0.1852,-0.07107 4.09666,-2.7480603 8.69215,-5.9488679 4.59548,-3.2008076 8.51122,-5.81737869 8.70165,-5.81460245 0.19044,0.002776 4.3762,2.67239945 9.3017,5.93249585 4.9255,3.2600966 9.03426,5.9274485 9.13056,5.9274485 0.0963,0 4.11656,-2.6976865 8.9339,-5.9948586 4.81733,-3.2971721 8.89897,-5.94524058 9.07031,-5.88459654 0.17135,0.0606441 4.24513,2.75833024 9.05289,5.99485844 4.80776,3.2365281 8.83083,5.8845967 8.94017,5.8845967 0.10935,0 3.66362,-2.333641 7.89841,-5.1858686 l 7.6996,-5.1858681 2.39745,3.5918238 c 1.3186,1.9755032 2.35383,3.635432 2.30053,3.6887309 -0.0533,0.053299 -4.64373,3.153034 -10.20099,6.8883 l -10.10407,6.791393 -9.05081,-6.08974 -9.05079,-6.08974 -6.09853,4.167078 c -3.35422,2.291893 -7.3582,5.031667 -8.89777,6.088386 l -2.79923,1.921308 -9.08853,-6.018985 c -4.9987,-3.310442 -9.19243,-6.018989 -9.31938,-6.018992 -0.12696,-4e-6 -3.55479,2.313965 -7.6174,5.142153 -4.06262,2.828188 -7.96381,5.534285 -8.66932,6.013548 l -1.28275,0.871388 -9.205,-6.0826 c -5.06278,-3.345429 -9.27603,-6.038723 -9.3628,-5.985096 -0.19071,0.117867 -10.17285,6.934084 -14.56246,9.943842 l -3.14866,2.158912 -8.8089,-6.017527 c -5.57276,-3.806845 -8.93805,-5.967969 -9.16046,-5.882629 -0.19334,0.07419 -4.27412,2.776812 -9.06842,6.005817 l -8.71689,5.870918 -9.07179,-6.096553 -9.0718,-6.096553 -1.52595,1.071704 c -0.83927,0.589437 -4.22666,2.909407 -7.52753,5.155488 -3.30088,2.246082 -6.60376,4.505752 -7.33975,5.021491 l -1.33817,0.937705 -7.08714,-4.630413 c -3.89793,-2.546727 -7.99205,-5.238811 -9.09805,-5.982408 -1.106,-0.743597 -2.12261,-1.351995 -2.25912,-1.351995 -0.13651,0 -4.13809,2.705058 -8.89239,6.01124 l -8.64418,6.011239 -9.09687,-6.011239 c -5.00328,-3.306182 -9.20887,-6.01124 -9.34575,-6.01124 -0.13688,0 -2.19935,1.336649 -4.58326,2.970332 -2.38391,1.633683 -6.34761,4.328404 -8.80822,5.98827 l -4.47385,3.017938 -5.68269,-3.837615 c -3.12547,-2.110688 -7.16278,-4.857809 -8.97179,-6.104713 l -3.28911,-2.267098 -9.13973,6.094334 -9.13973,6.094333 -9.05815,-6.080472 -9.05815,-6.080473 -5.75099,3.937312 c -3.16304,2.165521 -7.16308,4.904873 -8.88898,6.087449 l -3.138,2.150138 -9.09601,-6.018611 c -5.002801,-3.310236 -9.199878,-6.018633 -9.326834,-6.01866 -0.126957,-2.7e-5 -4.074155,2.679993 -8.771552,5.955599 -4.697396,3.275607 -8.644594,5.954839 -8.771551,5.95385 -0.126957,-9.9e-4 -4.278386,-2.683138 -9.225398,-5.960328 -4.947014,-3.277191 -9.10196,-5.955664 -9.233212,-5.952162 -0.131255,0.0035 -2.575801,1.609716 -5.432326,3.569366 -2.856524,1.95965 -6.815448,4.671568 -8.797608,6.026484 l -3.603928,2.463483 z"
     id="path11" />
</svg>
