<?xml version="1.0" encoding="UTF-8"?>
<svg xmlns="http://www.w3.org/2000/svg" xmlns:xlink="http://www.w3.org/1999/xlink" width="620px" height="px" viewBox="0 0 617 31" version="1.1">
<g id="surface1">
<path style=" stroke:none;fill-rule:evenodd;fill:rgb(50.196078%,72.54902%,100%);fill-opacity:0.219608;" d="M 152.335938 16.441406 L 127.476562 0 L 103.867188 16.421875 L 79.066406 0.0195312 L 55.105469 16.402344 L 31.175781 0.0390625 L 0 20.296875 L 6.582031 30.390625 L 31.003906 14.519531 L 55.105469 31 L 79.175781 14.539062 L 104.039062 30.980469 L 127.644531 14.558594 L 152.449219 30.960938 L 176.433594 14.558594 L 200.832031 30.960938 L 225.492188 14.519531 L 249.59375 31 L 273.664062 14.539062 L 298.523438 30.980469 L 322.132812 14.558594 L 346.933594 30.960938 L 370.921875 14.558594 L 395.316406 30.960938 L 419.574219 14.652344 L 443.480469 31 L 467.554688 14.539062 L 492.414062 30.980469 L 516.023438 14.558594 L 540.824219 30.960938 L 564.8125 14.558594 L 589.207031 30.960938 L 617 12.273438 L 610.261719 2.285156 L 589.207031 16.441406 L 564.753906 0 L 540.710938 16.441406 L 515.851562 0 L 492.242188 16.421875 L 467.441406 0.0195312 L 443.480469 16.402344 L 419.550781 0.0390625 L 394.820312 16.109375 L 370.867188 0 L 346.824219 16.441406 L 321.960938 0 L 298.351562 16.421875 L 273.554688 0.0195312 L 249.59375 16.402344 L 225.660156 0.0390625 L 200.628906 16.304688 L 176.378906 0 Z M 152.335938 16.441406 "/>
</g>
</svg>
