<?xml version="1.0" encoding="UTF-8"?>
<svg xmlns="http://www.w3.org/2000/svg" xmlns:xlink="http://www.w3.org/1999/xlink" width="620px" height="px" viewBox="0 0 617 31" version="1.1">
<g id="surface1">
<path style=" stroke:none;fill-rule:evenodd;fill:rgb(27.058824%,60%,100%);fill-opacity:1;" d="M 152.335938 16.441406 L 127.476562 0 L 103.867188 16.421875 L 79.066406 0.0195312 L 55.105469 16.402344 L 31.175781 0.0390625 L 0 20.296875 L 6.582031 30.390625 L 31.003906 14.519531 L 55.105469 31 L 79.175781 14.539062 L 104.039062 30.980469 L 127.644531 14.558594 L 152.449219 30.960938 L 176.433594 14.558594 L 200.832031 30.960938 L 225.492188 14.519531 L 249.59375 31 L 273.664062 14.539062 L 298.523438 30.980469 L 322.132812 14.558594 L 346.933594 30.960938 L 370.921875 14.558594 L 395.316406 30.960938 L 419.574219 14.652344 L 443.480469 31 L 467.554688 14.539062 L 492.414062 30.980469 L 516.023438 14.558594 L 540.824219 30.960938 L 564.8125 14.558594 L 589.207031 30.960938 L 617 12.273438 L 610.261719 2.285156 L 589.207031 16.441406 L 564.753906 0 L 540.710938 16.441406 L 515.851562 0 L 492.242188 16.421875 L 467.441406 0.0195312 L 443.480469 16.402344 L 419.550781 0.0390625 L 394.820312 16.109375 L 370.867188 0 L 346.824219 16.441406 L 321.960938 0 L 298.351562 16.421875 L 273.554688 0.0195312 L 249.59375 16.402344 L 225.660156 0.0390625 L 200.628906 16.304688 L 176.378906 0 Z M 152.335938 16.441406 "/>
<path style=" stroke:none;fill-rule:nonzero;fill:rgb(27.058824%,60%,100%);fill-opacity:1;" d="M 50.890625 27.914062 L 46.660156 25.046875 L 46.652344 17.949219 C 46.648438 13.238281 46.75 10.917969 46.960938 11.046875 C 47.132812 11.152344 48.917969 12.371094 50.925781 13.746094 C 52.933594 15.125 54.726562 16.3125 54.917969 16.386719 C 55.105469 16.460938 60.601562 12.863281 67.136719 8.394531 L 79.011719 0.269531 L 81.5625 1.90625 C 82.964844 2.804688 88.503906 6.457031 93.871094 10.015625 C 99.234375 13.578125 103.730469 16.488281 103.859375 16.488281 C 103.988281 16.488281 109.253906 12.890625 115.5625 8.496094 C 121.871094 4.097656 127.238281 0.503906 127.496094 0.503906 C 127.753906 0.507812 133.40625 4.109375 140.058594 8.515625 C 147.15625 13.214844 152.335938 16.449219 152.597656 16.351562 C 152.84375 16.253906 158.296875 12.589844 164.710938 8.199219 L 176.378906 0.222656 L 188.390625 8.277344 C 194.996094 12.707031 200.542969 16.320312 200.71875 16.300781 C 200.894531 16.285156 205.9375 13.078125 211.921875 9.179688 C 217.910156 5.28125 223.460938 1.683594 224.265625 1.1875 L 225.722656 0.28125 L 236.5625 7.699219 C 242.523438 11.777344 247.898438 15.421875 248.503906 15.796875 L 249.601562 16.476562 L 256.1875 12.050781 C 259.808594 9.613281 265.195312 5.96875 268.160156 3.941406 L 273.554688 0.265625 L 282.230469 5.933594 C 287.003906 9.054688 292.566406 12.714844 294.589844 14.074219 L 298.273438 16.539062 L 300.015625 15.382812 C 300.972656 14.746094 306.171875 11.148438 311.570312 7.386719 C 316.96875 3.621094 321.554688 0.476562 321.761719 0.398438 C 321.972656 0.316406 327.695312 3.925781 334.480469 8.417969 C 343.179688 14.175781 346.941406 16.5 347.230469 16.300781 C 347.457031 16.148438 349.710938 14.625 352.238281 12.914062 C 354.765625 11.203125 359.957031 7.667969 363.777344 5.058594 C 367.597656 2.449219 370.792969 0.3125 370.878906 0.3125 C 370.96875 0.3125 376.355469 3.890625 382.851562 8.269531 C 389.351562 12.644531 394.832031 16.164062 395.03125 16.085938 C 395.230469 16.007812 400.820312 12.421875 407.453125 8.117188 C 414.769531 3.367188 419.660156 0.375 419.890625 0.515625 C 420.101562 0.640625 425.378906 4.242188 431.621094 8.519531 C 437.863281 12.792969 443.183594 16.296875 443.445312 16.300781 C 443.703125 16.308594 449.203125 12.699219 455.660156 8.285156 L 467.40625 0.261719 L 470.425781 2.210938 C 472.085938 3.285156 477.621094 6.945312 482.726562 10.347656 C 488.246094 14.027344 492.191406 16.464844 492.460938 16.359375 C 492.710938 16.261719 497.980469 12.65625 504.167969 8.339844 C 510.359375 4.027344 515.636719 0.5 515.890625 0.503906 C 516.148438 0.507812 521.789062 4.105469 528.421875 8.5 C 535.058594 12.894531 540.59375 16.488281 540.722656 16.488281 C 540.851562 16.488281 546.269531 12.851562 552.757812 8.410156 C 559.25 3.964844 564.746094 0.394531 564.976562 0.476562 C 565.207031 0.558594 570.695312 4.195312 577.171875 8.558594 C 583.652344 12.921875 589.070312 16.488281 589.21875 16.488281 C 589.363281 16.488281 594.152344 13.34375 599.859375 9.5 L 610.230469 2.511719 L 613.460938 7.351562 C 615.238281 10.015625 616.632812 12.25 616.558594 12.324219 C 616.488281 12.394531 610.304688 16.574219 602.816406 21.605469 L 589.207031 30.761719 L 577.011719 22.554688 L 564.820312 14.34375 L 556.605469 19.960938 C 552.085938 23.050781 546.691406 26.742188 544.617188 28.167969 L 540.847656 30.757812 L 528.601562 22.644531 C 521.867188 18.183594 516.21875 14.53125 516.046875 14.53125 C 515.875 14.53125 511.257812 17.652344 505.785156 21.460938 C 500.3125 25.273438 495.058594 28.921875 494.105469 29.566406 L 492.378906 30.742188 L 479.976562 22.542969 C 473.15625 18.035156 467.480469 14.40625 467.363281 14.476562 C 467.109375 14.636719 453.660156 23.824219 447.746094 27.878906 L 443.503906 30.789062 L 431.636719 22.679688 C 424.128906 17.546875 419.597656 14.636719 419.296875 14.75 C 419.035156 14.851562 413.539062 18.492188 407.082031 22.84375 L 395.335938 30.757812 L 383.117188 22.542969 L 370.894531 14.324219 L 368.839844 15.769531 C 367.710938 16.5625 363.144531 19.691406 358.699219 22.71875 C 354.253906 25.746094 349.800781 28.789062 348.8125 29.484375 L 347.007812 30.75 L 337.460938 24.507812 C 332.210938 21.074219 326.695312 17.445312 325.203125 16.445312 C 323.714844 15.441406 322.34375 14.621094 322.160156 14.621094 C 321.976562 14.621094 316.585938 18.269531 310.179688 22.726562 L 298.535156 30.828125 L 286.28125 22.726562 C 279.542969 18.269531 273.875 14.621094 273.691406 14.621094 C 273.507812 14.621094 270.726562 16.425781 267.515625 18.625 C 264.304688 20.828125 258.964844 24.460938 255.652344 26.695312 L 249.625 30.765625 L 241.96875 25.59375 C 237.757812 22.746094 232.320312 19.046875 229.882812 17.363281 L 225.449219 14.308594 L 200.824219 30.738281 L 176.417969 14.347656 L 168.671875 19.652344 C 164.410156 22.570312 159.023438 26.265625 156.699219 27.859375 L 152.46875 30.753906 L 140.214844 22.644531 C 133.476562 18.183594 127.824219 14.53125 127.652344 14.53125 C 127.480469 14.53125 122.164062 18.144531 115.835938 22.558594 C 109.507812 26.972656 104.1875 30.585938 104.019531 30.582031 C 103.847656 30.582031 98.253906 26.96875 91.589844 22.550781 C 84.925781 18.132812 79.328125 14.523438 79.152344 14.527344 C 78.972656 14.53125 75.679688 16.695312 71.832031 19.339844 C 67.984375 21.980469 62.652344 25.636719 59.980469 27.460938 L 55.125 30.78125 Z M 50.890625 27.914062 "/>
</g>
</svg>
