<svg width="210" height="48" viewBox="0 0 210 48" fill="none" xmlns="http://www.w3.org/2000/svg">
<path d="M131.414 37.8633C133.754 37.8633 135.65 35.9664 135.65 33.6265C135.65 31.2865 133.754 29.3897 131.414 29.3897C129.074 29.3897 127.177 31.2865 127.177 33.6265C127.177 35.9664 129.074 37.8633 131.414 37.8633Z" fill="#EDEDED"/>
<path d="M205.558 37.8633C207.898 37.8633 209.795 35.9664 209.795 33.6265C209.795 31.2865 207.898 29.3897 205.558 29.3897C203.218 29.3897 201.321 31.2865 201.321 33.6265C201.321 35.9664 203.218 37.8633 205.558 37.8633Z" fill="#EDEDED"/>
<path d="M165.308 37.8633C167.648 37.8633 169.545 35.9664 169.545 33.6265C169.545 31.2865 167.648 29.3897 165.308 29.3897C162.968 29.3897 161.071 31.2865 161.071 33.6265C161.071 35.9664 162.968 37.8633 165.308 37.8633Z" fill="#EDEDED"/>
<path d="M154.719 9.01105C154.167 9.01155 153.72 9.45912 153.72 10.011V16.0179C153.72 16.5702 154.168 17.0179 154.72 17.0179H158.391C158.746 17.0179 159.034 17.3055 159.034 17.6604V18.4798C159.034 23.0105 157.638 24.6178 154.51 26.5069C152.024 28.0077 150.069 29.2154 149.031 29.8601C148.573 30.1448 148.428 30.7411 148.7 31.2069L151.687 36.3267C151.972 36.815 152.605 36.9715 153.085 36.6733C154.119 36.0308 156.005 34.8673 158.391 33.4263C160.289 32.2798 162.688 30.6122 164.401 27.8705C165.982 25.3416 166.75 22.2699 166.75 18.4798V10.0009C166.75 9.44827 166.301 9.00041 165.749 9.00092L154.719 9.01105Z" fill="#EDEDED"/>
<path fill-rule="evenodd" clip-rule="evenodd" d="M109.717 37.3464C109.716 37.3464 109.716 37.3466 109.716 37.3469C109.716 37.3472 109.716 37.3475 109.716 37.3475H103C102.448 37.3475 102 36.8997 102 36.3475V24.9497C102 22.2491 102.51 20.3679 103.946 18.8563C105.61 17.1048 108.531 17.0197 109.439 17.0385C109.596 17.0418 109.716 17.1714 109.716 17.3288V25.6057C109.816 24.3024 110.198 22.4664 111.46 21.1953C112.929 19.7153 114.736 19.1764 117.344 19.1764H123.879C124.431 19.1764 124.879 19.6241 124.879 20.1764V26.1823C124.879 26.7346 124.431 27.1823 123.879 27.1823H110.386C110.016 27.1823 109.716 27.4821 109.716 27.8519V28.6709C109.716 29.0407 110.016 29.3405 110.386 29.3405H126.093C126.646 29.3405 127.093 29.7882 127.093 30.3405V36.3464C127.093 36.8987 126.646 37.3464 126.093 37.3464H109.717ZM109.715 10.0124C109.715 9.46013 110.163 9.01241 110.715 9.01241H126.093C126.646 9.01241 127.093 9.46013 127.093 10.0124V16.0183C127.093 16.5706 126.646 17.0183 126.093 17.0183H109.963C109.826 17.0183 109.715 16.9072 109.715 16.7702V10.0124Z" fill="#EDEDED"/>
<path fill-rule="evenodd" clip-rule="evenodd" d="M194.19 28.6768C193.273 28.5474 192.363 28.3703 191.464 28.1461C191.219 28.085 191.05 27.8633 191.05 27.6107C191.05 27.3741 191.241 27.1823 191.478 27.1823H193.063C193.063 27.1823 193.063 27.1826 193.063 27.1829C193.063 27.1832 193.063 27.1834 193.064 27.1834H199.779C200.332 27.1834 200.779 26.7357 200.779 26.1834V10.0124C200.779 9.46013 200.332 9.01241 199.779 9.01241H184.4C183.848 9.01241 183.4 9.46013 183.4 10.0124V16.7509C183.4 16.8986 183.52 17.0183 183.668 17.0183H192.512C192.816 17.0183 193.063 17.2652 193.063 17.5698V18.625C193.063 18.9295 192.816 19.1764 192.512 19.1764H191.029C188.421 19.1764 186.614 19.7153 185.145 21.1953C184.009 22.3396 183.586 23.9415 183.44 25.2006C183.424 25.3403 183.411 25.4757 183.401 25.6058V17.3288C183.401 17.1714 183.281 17.0418 183.124 17.0386C182.216 17.0197 179.295 17.1048 177.631 18.8564C176.195 20.368 175.685 22.2491 175.685 24.9497V36.3475C175.685 36.8997 176.133 37.3475 176.685 37.3475H182.906C183.179 37.3475 183.401 37.1258 183.401 36.8523V30.8432C183.401 30.8091 183.46 30.8036 183.467 30.837C183.688 31.8312 184.174 32.7496 184.877 33.4926C185.538 34.1949 186.381 34.7577 187.452 35.2132C188.761 35.769 190.485 36.1948 193.043 36.5938C195.361 36.9554 197.755 37.3474 199.065 37.5651C199.639 37.6604 200.134 37.2453 200.266 36.6792L201.608 30.9546C201.739 30.3934 201.371 29.8387 200.802 29.7444C199.386 29.5094 196.744 29.0752 194.19 28.6768Z" fill="#EDEDED"/>
<path fill-rule="evenodd" clip-rule="evenodd" d="M140.62 16.9441V36.3478C140.62 36.9001 141.067 37.3478 141.62 37.3478H147.336C147.888 37.3478 148.336 36.9001 148.336 36.3478V9.97144C148.336 9.44841 147.932 9.01838 147.409 9.04122C146.161 9.0958 143.936 9.40767 142.565 10.8508C141.129 12.3624 140.62 14.2435 140.62 16.9441Z" fill="#EDEDED"/>
<path fill-rule="evenodd" clip-rule="evenodd" d="M43.2259 48C67.0989 48 86.4517 37.2548 86.4517 24C86.4517 10.7452 67.0989 0 43.2259 0C19.3529 0 0 10.7452 0 24C0 37.2548 19.3529 48 43.2259 48Z" fill="#3CF19F"/>
<path fill-rule="evenodd" clip-rule="evenodd" d="M39.4355 32.1614C39.8096 31.7739 39.8096 31.1597 39.4355 30.7722L35.7103 26.914C35.6434 26.8446 35.6925 26.7288 35.7889 26.7288H41C41.5523 26.7288 42 26.2811 42 25.7288V21.2676C42 20.7153 41.5523 20.2676 41 20.2676H35.9025C35.7632 20.2676 35.6922 20.1002 35.7889 20L39.435 16.2237C39.8091 15.8362 39.8091 15.222 39.435 14.8345L36.4138 11.7054C36.0206 11.2982 35.3681 11.2982 34.975 11.7054L31.3393 15.4709C31.2591 15.5539 31.1186 15.4972 31.1186 15.3817V10C31.1186 9.44772 30.6709 9 30.1186 9H25.8802C25.3279 9 24.8802 9.44772 24.8802 10V15.3817C24.8802 15.4963 24.7407 15.5526 24.6612 15.4702L21.0265 11.7058C20.6333 11.2985 19.9809 11.2985 19.5877 11.7058L16.5665 14.8349C16.1924 15.2224 16.1924 15.8366 16.5665 16.2241L20.2122 20C20.309 20.1002 20.238 20.2675 20.0987 20.2675H15C14.4477 20.2675 14 20.7153 14 21.2675L14 25.7288C14 26.2811 14.4477 26.7288 15 26.7288H20.2122C20.3087 26.7288 20.3578 26.8446 20.2908 26.914L16.566 30.7718C16.1919 31.1593 16.1919 31.7735 16.566 32.161L19.5872 35.2901C19.9804 35.6973 20.6329 35.6973 21.026 35.2901L24.637 31.5502C24.7253 31.4587 24.8802 31.5213 24.8802 31.6485L24.8802 37C24.8802 37.5523 25.3279 38 25.8802 38H30.1186C30.6709 38 31.1186 37.5523 31.1186 37V31.6494C31.1186 31.521 31.275 31.4578 31.3642 31.5502L34.9754 35.2905C35.3686 35.6977 36.0211 35.6977 36.4142 35.2905L39.4355 32.1614ZM48.7408 10.694C48.5911 10.3102 48.2212 10.0575 47.8092 10.0575H43.4636C42.7598 10.0575 42.2762 10.7653 42.532 11.421L52.2631 36.3607C52.4134 36.7459 52.7853 36.9989 53.1989 36.9972L58.8163 36.974C59.2271 36.9724 59.595 36.7197 59.7441 36.3369L69.4693 11.3629C69.7246 10.7073 69.241 10 68.5374 10L64.1972 10C63.785 10 63.415 10.253 63.2654 10.6371L59.6975 19.7993C59.6599 19.8958 59.6375 19.9976 59.6312 20.1011L59.2652 26.0818V11C59.2652 10.4477 58.8174 10 58.2652 10H53.7422C53.19 10 52.7422 10.4477 52.7422 11V26.1215L52.3471 20.065C52.3404 19.9627 52.3181 19.862 52.2808 19.7666L48.7408 10.694Z" fill="#171717"/>
</svg>
