<svg width="44" height="44" viewBox="0 0 44 44" fill="none" xmlns="http://www.w3.org/2000/svg">
<g id="ic:outline-keyboard-voice">
<path id="Vector" d="M22.0001 27.5C25.0434 27.5 27.4817 25.0433 27.4817 22L27.5001 11C27.5001 7.95667 25.0434 5.5 22.0001 5.5C18.9567 5.5 16.5001 7.95667 16.5001 11V22C16.5001 25.0433 18.9567 27.5 22.0001 27.5ZM19.8001 10.8167C19.8001 9.60667 20.7901 8.61667 22.0001 8.61667C23.2101 8.61667 24.2001 9.60667 24.2001 10.8167L24.1817 22.1833C24.1817 23.3933 23.2101 24.3833 22.0001 24.3833C20.7901 24.3833 19.8001 23.3933 19.8001 22.1833V10.8167ZM31.7167 22C31.7167 27.5 27.0601 31.35 22.0001 31.35C16.9401 31.35 12.2834 27.5 12.2834 22H9.16675C9.16675 28.2517 14.1534 33.4217 20.1667 34.32V40.3333H23.8334V34.32C29.8467 33.44 34.8334 28.27 34.8334 22H31.7167Z" fill="#4599FF"/>
</g>
</svg>
