<svg width="44" height="44" viewBox="0 0 44 44" fill="none" xmlns="http://www.w3.org/2000/svg">
<g id="clarity:keyboard-line" clip-path="url(#clip0_1119_1268)">
<path id="Vector" d="M39.111 9.77734H4.88878C4.24047 9.77734 3.61872 10.0349 3.1603 10.4933C2.70187 10.9517 2.44434 11.5735 2.44434 12.2218V31.7773C2.44434 32.4256 2.70187 33.0474 3.1603 33.5058C3.61872 33.9642 4.24047 34.2218 4.88878 34.2218H39.111C39.7593 34.2218 40.3811 33.9642 40.8395 33.5058C41.2979 33.0474 41.5554 32.4256 41.5554 31.7773V12.2218C41.5554 11.5735 41.2979 10.9517 40.8395 10.4933C40.3811 10.0349 39.7593 9.77734 39.111 9.77734ZM39.111 31.7773H4.88878V12.2218H39.111V31.7773Z" fill="#4599FF"/>
<path id="Vector_2" d="M8.55566 15.8887H11.0001V18.3331H8.55566V15.8887Z" fill="#4599FF"/>
<path id="Vector_3" d="M13.4443 15.8887H15.8888V18.3331H13.4443V15.8887Z" fill="#4599FF"/>
<path id="Vector_4" d="M18.3333 15.8887H20.7777V18.3331H18.3333V15.8887Z" fill="#4599FF"/>
<path id="Vector_5" d="M23.2222 15.8887H25.6666V18.3331H23.2222V15.8887Z" fill="#4599FF"/>
<path id="Vector_6" d="M28.1111 15.8887H30.5555V18.3331H28.1111V15.8887Z" fill="#4599FF"/>
<path id="Vector_7" d="M33 15.8887H35.4444V18.3331H33V15.8887Z" fill="#4599FF"/>
<path id="Vector_8" d="M8.55566 20.7773H11.0001V23.2218H8.55566V20.7773Z" fill="#4599FF"/>
<path id="Vector_9" d="M13.4443 20.7773H15.8888V23.2218H13.4443V20.7773Z" fill="#4599FF"/>
<path id="Vector_10" d="M18.3333 20.7773H20.7777V23.2218H18.3333V20.7773Z" fill="#4599FF"/>
<path id="Vector_11" d="M23.2222 20.7773H25.6666V23.2218H23.2222V20.7773Z" fill="#4599FF"/>
<path id="Vector_12" d="M28.1111 20.7773H30.5555V23.2218H28.1111V20.7773Z" fill="#4599FF"/>
<path id="Vector_13" d="M33 20.7773H35.4444V23.2218H33V20.7773Z" fill="#4599FF"/>
<path id="Vector_14" d="M33 26.8887H35.3711V29.3331H33V26.8887Z" fill="#4599FF"/>
<path id="Vector_15" d="M8.55566 26.8887H11.0001V29.3331H8.55566V26.8887Z" fill="#4599FF"/>
<path id="Vector_16" d="M13.6033 26.8887H30.4088V29.3331H13.6033V26.8887Z" fill="#4599FF"/>
</g>
<defs>
<clipPath id="clip0_1119_1268">
<rect width="44" height="44" fill="white"/>
</clipPath>
</defs>
</svg>
